<svg width="24" height="25" viewBox="0 0 24 25" fill="none" xmlns="http://www.w3.org/2000/svg">
<g clip-path="url(#clip0_437_857)">
<path fill-rule="evenodd" clip-rule="evenodd" d="M21.546 5.61058C21.8272 5.89187 21.9852 6.27333 21.9852 6.67108C21.9852 7.06882 21.8272 7.45029 21.546 7.73158L10.303 18.9746C10.1544 19.1232 9.97805 19.2411 9.7839 19.3215C9.58976 19.4019 9.38167 19.4433 9.17153 19.4433C8.96138 19.4433 8.75329 19.4019 8.55915 19.3215C8.365 19.2411 8.1886 19.1232 8.04003 18.9746L2.45403 13.3896C2.31076 13.2512 2.19649 13.0857 2.11787 12.9027C2.03926 12.7197 1.99788 12.5228 1.99615 12.3237C1.99442 12.1245 2.03237 11.927 2.10779 11.7426C2.18322 11.5583 2.29459 11.3908 2.43543 11.25C2.57627 11.1091 2.74375 10.9978 2.92809 10.9223C3.11244 10.8469 3.30996 10.809 3.50913 10.8107C3.7083 10.8124 3.90513 10.8538 4.08813 10.9324C4.27114 11.011 4.43666 11.1253 4.57503 11.2686L9.17103 15.8646L19.424 5.61058C19.5633 5.47119 19.7287 5.36061 19.9108 5.28517C20.0928 5.20973 20.288 5.1709 20.485 5.1709C20.6821 5.1709 20.8772 5.20973 21.0593 5.28517C21.2413 5.36061 21.4067 5.47119 21.546 5.61058Z" fill="#404040"/>
</g>
<defs>
<clipPath id="clip0_437_857">
<rect width="24" height="24" fill="white" transform="translate(0 0.5)"/>
</clipPath>
</defs>
</svg>
