<svg width="24" height="24" viewBox="0 0 24 24" fill="none" xmlns="http://www.w3.org/2000/svg">
<g clip-path="url(#clip0_443_1616)">
<path d="M1.5 5.25C1.5 4.25544 1.89509 3.30161 2.59835 2.59835C3.30161 1.89509 4.25544 1.5 5.25 1.5H15.75C16.7446 1.5 17.6984 1.89509 18.4017 2.59835C19.1049 3.30161 19.5 4.25544 19.5 5.25V9.348C19.011 9.558 18.5535 9.8625 18.1545 10.2615L18 10.416V7.5H3V15.75C3 16.3467 3.23705 16.919 3.65901 17.341C4.08097 17.7629 4.65326 18 5.25 18H10.479C10.1385 18.45 9.879 18.9585 9.714 19.5H5.25C4.25544 19.5 3.30161 19.1049 2.59835 18.4017C1.89509 17.6984 1.5 16.7446 1.5 15.75V5.25ZM15.531 12.219C15.657 12.345 15.7275 12.504 15.7455 12.669L11.9205 16.4955C11.78 16.4802 11.6467 16.4255 11.536 16.3378C11.4252 16.25 11.3415 16.1328 11.2945 15.9995C11.2475 15.8663 11.239 15.7225 11.2702 15.5846C11.3013 15.4468 11.3708 15.3206 11.4705 15.2205L13.938 12.75L11.469 10.281C11.3993 10.2113 11.344 10.1285 11.3062 10.0374C11.2685 9.94627 11.2491 9.84862 11.2491 9.75C11.2491 9.65138 11.2685 9.55373 11.3062 9.46262C11.344 9.37152 11.3993 9.28873 11.469 9.219C11.5387 9.14927 11.6215 9.09395 11.7126 9.05621C11.8037 9.01848 11.9014 8.99905 12 8.99905C12.0986 8.99905 12.1963 9.01848 12.2874 9.05621C12.3785 9.09395 12.4613 9.14927 12.531 9.219L15.531 12.219ZM9.531 9.219C9.60085 9.28867 9.65626 9.37143 9.69407 9.46255C9.73188 9.55367 9.75134 9.65135 9.75134 9.75C9.75134 9.84865 9.73188 9.94633 9.69407 10.0375C9.65626 10.1286 9.60085 10.2113 9.531 10.281L7.0605 12.75L9.531 15.219C9.67183 15.3598 9.75095 15.5508 9.75095 15.75C9.75095 15.9492 9.67183 16.1402 9.531 16.281C9.39017 16.4218 9.19916 16.5009 9 16.5009C8.80084 16.5009 8.60983 16.4218 8.469 16.281L5.469 13.281C5.39916 13.2113 5.34374 13.1286 5.30593 13.0374C5.26812 12.9463 5.24866 12.8487 5.24866 12.75C5.24866 12.6513 5.26812 12.5537 5.30593 12.4626C5.34374 12.3714 5.39916 12.2887 5.469 12.219L8.469 9.219C8.53867 9.14916 8.62143 9.09374 8.71255 9.05593C8.80367 9.01812 8.90135 8.99866 9 8.99866C9.09865 8.99866 9.19633 9.01812 9.28745 9.05593C9.37857 9.09374 9.46133 9.14916 9.531 9.219ZM11.97 18.5655L19.215 11.3205C19.7413 10.7946 20.455 10.4993 21.1991 10.4996C21.9431 10.4998 22.6566 10.7957 23.1825 11.322C23.7084 11.8483 24.0037 12.562 24.0034 13.3061C24.0032 14.0501 23.7073 14.7636 23.181 15.2895L15.936 22.533C15.5138 22.9551 14.985 23.2547 14.406 23.4L12.159 23.961C11.9356 24.0167 11.7015 24.0136 11.4796 23.9521C11.2577 23.8906 11.0555 23.7728 10.8926 23.61C10.7297 23.4473 10.6117 23.2452 10.55 23.0233C10.4883 22.8015 10.485 22.5675 10.5405 22.344L11.103 20.097C11.2483 19.518 11.5479 18.9892 11.97 18.567" fill="#404040"/>
</g>
<defs>
<clipPath id="clip0_443_1616">
<rect width="24" height="24" fill="white"/>
</clipPath>
</defs>
</svg>
