<svg width="24" height="25" viewBox="0 0 24 25" fill="none" xmlns="http://www.w3.org/2000/svg">
<g clip-path="url(#clip0_437_850)">
<path fill-rule="evenodd" clip-rule="evenodd" d="M20 5.5C20.5046 5.49984 20.9906 5.69041 21.3605 6.0335C21.7305 6.37659 21.9572 6.84684 21.995 7.35L22 7.5V17.5C22.0002 18.0046 21.8096 18.4906 21.4665 18.8605C21.1234 19.2305 20.6532 19.4572 20.15 19.495L20 19.5H4C3.49542 19.5002 3.00943 19.3096 2.63945 18.9665C2.26947 18.6234 2.04284 18.1532 2.005 17.65L2 17.5V7.5C1.99984 6.99542 2.19041 6.50943 2.5335 6.13945C2.87659 5.76947 3.34684 5.54284 3.85 5.505L4 5.5H20ZM6.833 9.5H6C5.73478 9.5 5.48043 9.60536 5.29289 9.79289C5.10536 9.98043 5 10.2348 5 10.5V14.5C5 14.7652 5.10536 15.0196 5.29289 15.2071C5.48043 15.3946 5.73478 15.5 6 15.5C6.26522 15.5 6.51957 15.3946 6.70711 15.2071C6.89464 15.0196 7 14.7652 7 14.5V12.86L7.626 13.986C7.71263 14.1418 7.83934 14.2716 7.99301 14.362C8.14668 14.4524 8.32172 14.5001 8.5 14.5001C8.67828 14.5001 8.85332 14.4524 9.00699 14.362C9.16066 14.2716 9.28737 14.1418 9.374 13.986L10 12.859V14.5C10 14.7652 10.1054 15.0196 10.2929 15.2071C10.4804 15.3946 10.7348 15.5 11 15.5C11.2652 15.5 11.5196 15.3946 11.7071 15.2071C11.8946 15.0196 12 14.7652 12 14.5V10.5C12 10.2348 11.8946 9.98043 11.7071 9.79289C11.5196 9.60536 11.2652 9.5 11 9.5H10.167C9.98873 9.49999 9.81369 9.54764 9.66002 9.63801C9.50636 9.72839 9.37964 9.8582 9.293 10.014L8.5 11.441L7.707 10.014C7.62036 9.8582 7.49364 9.72839 7.33997 9.63801C7.18631 9.54764 7.01127 9.49999 6.833 9.5ZM16 9.5C15.7551 9.50003 15.5187 9.58996 15.3356 9.75272C15.1526 9.91547 15.0357 10.1397 15.007 10.383L15 10.5V12.134C14.7992 12.0182 14.5645 11.9756 14.3359 12.0137C14.1072 12.0518 13.8989 12.1681 13.7466 12.3428C13.5942 12.5175 13.5073 12.7397 13.5006 12.9714C13.4939 13.203 13.5679 13.4298 13.71 13.613L13.793 13.707L15.293 15.207C15.4652 15.3792 15.6943 15.4826 15.9373 15.4979C16.1803 15.5132 16.4206 15.4393 16.613 15.29L16.707 15.207L18.207 13.707C18.3707 13.5434 18.4725 13.3281 18.4952 13.0978C18.5179 12.8675 18.4601 12.6365 18.3315 12.4441C18.2029 12.2517 18.0116 12.1098 17.7901 12.0427C17.5686 11.9756 17.3308 11.9874 17.117 12.076L17 12.134V10.5C17 10.2348 16.8946 9.98043 16.7071 9.79289C16.5196 9.60536 16.2652 9.5 16 9.5Z" fill="#404040"/>
</g>
<defs>
<clipPath id="clip0_437_850">
<rect width="24" height="24" fill="white" transform="translate(0 0.5)"/>
</clipPath>
</defs>
</svg>
