<svg width="24" height="25" viewBox="0 0 24 25" fill="none" xmlns="http://www.w3.org/2000/svg">
<g clip-path="url(#clip0_437_864)">
<path d="M16.5 3.125V5H19.875C20.1734 5 20.4595 5.11853 20.6705 5.3295C20.8815 5.54048 21 5.82663 21 6.125C21 6.42337 20.8815 6.70952 20.6705 6.9205C20.4595 7.13147 20.1734 7.25 19.875 7.25H4.125C3.82663 7.25 3.54048 7.13147 3.3295 6.9205C3.11853 6.70952 3 6.42337 3 6.125C3 5.82663 3.11853 5.54048 3.3295 5.3295C3.54048 5.11853 3.82663 5 4.125 5H7.5V3.125C7.5 1.676 8.676 0.5 10.125 0.5H13.875C15.324 0.5 16.5 1.676 16.5 3.125ZM6.744 10.5125L7.734 20.4125C7.7433 20.5051 7.78668 20.5909 7.8557 20.6532C7.92473 20.7156 8.01447 20.7501 8.1075 20.75H15.8925C15.9855 20.7501 16.0753 20.7156 16.1443 20.6532C16.2133 20.5909 16.2567 20.5051 16.266 20.4125L17.256 10.5125C17.2932 10.2219 17.4423 9.95729 17.6715 9.77492C17.9008 9.59254 18.1922 9.50679 18.4837 9.5359C18.7752 9.56502 19.0439 9.70669 19.2325 9.93081C19.4212 10.1549 19.515 10.4438 19.494 10.736L18.504 20.636C18.4393 21.2837 18.1362 21.8842 17.6537 22.3211C17.1711 22.7579 16.5434 22.9999 15.8925 23H8.1075C7.45681 22.9999 6.82935 22.7582 6.34681 22.3216C5.86428 21.8851 5.56107 21.2849 5.496 20.6375L4.506 10.7375C4.48721 10.5886 4.49843 10.4373 4.53899 10.2928C4.57954 10.1483 4.64862 10.0133 4.74215 9.89585C4.83568 9.77842 4.95177 9.68089 5.08358 9.60902C5.21539 9.53715 5.36024 9.49238 5.50962 9.47736C5.659 9.46235 5.80987 9.47738 5.95334 9.52157C6.09682 9.56577 6.23 9.63824 6.34503 9.7347C6.46007 9.83117 6.55463 9.94969 6.62315 10.0833C6.69167 10.2168 6.73276 10.3628 6.744 10.5125ZM9.75 3.125V5H14.25V3.125C14.25 3.02554 14.2105 2.93016 14.1402 2.85984C14.0698 2.78951 13.9745 2.75 13.875 2.75H10.125C10.0255 2.75 9.93016 2.78951 9.85983 2.85984C9.78951 2.93016 9.75 3.02554 9.75 3.125Z" fill="#F24E1E"/>
</g>
<defs>
<clipPath id="clip0_437_864">
<rect width="24" height="24" fill="white" transform="translate(0 0.5)"/>
</clipPath>
</defs>
</svg>
