<svg width="24" height="24" viewBox="0 0 24 24" fill="none" xmlns="http://www.w3.org/2000/svg">
<path d="M12 18.4618C13.0196 18.4618 13.8461 17.6353 13.8461 16.6157C13.8461 15.5961 13.0196 14.7695 12 14.7695C10.9804 14.7695 10.1538 15.5961 10.1538 16.6157C10.1538 17.6353 10.9804 18.4618 12 18.4618Z" fill="#F3F3F3"/>
<path d="M12 13.8461C13.0196 13.8461 13.8461 13.0196 13.8461 12C13.8461 10.9804 13.0196 10.1538 12 10.1538C10.9804 10.1538 10.1538 10.9804 10.1538 12C10.1538 13.0196 10.9804 13.8461 12 13.8461Z" fill="#F3F3F3"/>
<path d="M12 9.23088C13.0196 9.23088 13.8461 8.40433 13.8461 7.38473C13.8461 6.36513 13.0196 5.53857 12 5.53857C10.9804 5.53857 10.1538 6.36513 10.1538 7.38473C10.1538 8.40433 10.9804 9.23088 12 9.23088Z" fill="#F3F3F3"/>
</svg>
