<svg width="24" height="25" viewBox="0 0 24 25" fill="none" xmlns="http://www.w3.org/2000/svg">
<path d="M12 18.9618C13.0196 18.9618 13.8461 18.1353 13.8461 17.1157C13.8461 16.0961 13.0196 15.2695 12 15.2695C10.9804 15.2695 10.1538 16.0961 10.1538 17.1157C10.1538 18.1353 10.9804 18.9618 12 18.9618Z" fill="#404040"/>
<path d="M12 14.3461C13.0196 14.3461 13.8461 13.5196 13.8461 12.5C13.8461 11.4804 13.0196 10.6538 12 10.6538C10.9804 10.6538 10.1538 11.4804 10.1538 12.5C10.1538 13.5196 10.9804 14.3461 12 14.3461Z" fill="#404040"/>
<path d="M12 9.73088C13.0196 9.73088 13.8461 8.90433 13.8461 7.88473C13.8461 6.86513 13.0196 6.03857 12 6.03857C10.9804 6.03857 10.1538 6.86513 10.1538 7.88473C10.1538 8.90433 10.9804 9.73088 12 9.73088Z" fill="#404040"/>
</svg>
