<svg width="4" height="14" viewBox="0 0 4 14" fill="none" xmlns="http://www.w3.org/2000/svg">
<path d="M1.99999 13.4615C3.0196 13.4615 3.84615 12.6349 3.84615 11.6153C3.84615 10.5957 3.0196 9.76917 1.99999 9.76917C0.98039 9.76917 0.153839 10.5957 0.153839 11.6153C0.153839 12.6349 0.98039 13.4615 1.99999 13.4615Z" fill="#F3F3F3"/>
<path d="M1.99999 8.84612C3.0196 8.84612 3.84615 8.01957 3.84615 6.99996C3.84615 5.98036 3.0196 5.15381 1.99999 5.15381C0.98039 5.15381 0.153839 5.98036 0.153839 6.99996C0.153839 8.01957 0.98039 8.84612 1.99999 8.84612Z" fill="#F3F3F3"/>
<path d="M1.99999 4.23076C3.0196 4.23076 3.84615 3.40421 3.84615 2.38461C3.84615 1.365 3.0196 0.538452 1.99999 0.538452C0.98039 0.538452 0.153839 1.365 0.153839 2.38461C0.153839 3.40421 0.98039 4.23076 1.99999 4.23076Z" fill="#F3F3F3"/>
</svg>
