<?xml version="1.0" encoding="UTF-8"?>
<svg xmlns="http://www.w3.org/2000/svg" xmlns:xlink="http://www.w3.org/1999/xlink" viewBox="0 0 1920 1080">
  <defs>
    <style>
      .cls-1 {
        fill: #a8cd9f;
      }

      .cls-1, .cls-2, .cls-3, .cls-4, .cls-5 {
        stroke-width: 0px;
      }

      .cls-2, .cls-6 {
        fill: #e2f4c5;
      }

      .cls-7 {
        font-family: Impact, Impact;
        font-size: 230px;
      }

      .cls-7, .cls-4 {
        fill: #58a399;
      }

      .cls-3 {
        fill: none;
      }

      .cls-8 {
        filter: url(#drop-shadow-1);
      }

      .cls-6 {
        filter: url(#drop-shadow-2);
        font-family: FranklinGothic-HeavyItalic, 'Franklin Gothic Heavy';
        font-size: 66px;
        font-style: italic;
        font-weight: 800;
      }

      .cls-5 {
        fill: #496989;
      }
    </style>
    <filter id="drop-shadow-1" filterUnits="userSpaceOnUse">
      <feOffset dx="7" dy="7"/>
      <feGaussianBlur result="blur" stdDeviation="5"/>
      <feFlood flood-color="#000" flood-opacity=".75"/>
      <feComposite in2="blur" operator="in"/>
      <feComposite in="SourceGraphic"/>
    </filter>
    <filter id="drop-shadow-2" filterUnits="userSpaceOnUse">
      <feOffset dx="5" dy="4"/>
      <feGaussianBlur result="blur-2" stdDeviation="5"/>
      <feFlood flood-color="#000" flood-opacity=".75"/>
      <feComposite in2="blur-2" operator="in"/>
      <feComposite in="SourceGraphic"/>
    </filter>
  </defs>
  <g id="Layer_3" data-name="Layer 3">
    <rect class="cls-3" width="1924" height="1079"/>
    <rect class="cls-5" y=".5" width="1920" height="1079" transform="translate(1920 1080) rotate(180)"/>
  </g>
  <g id="Layer_4" data-name="Layer 4">
    <polygon class="cls-2" points="940.96 439.84 941 439.8 941 439.88 940.96 439.84"/>
    <g class="cls-8">
      <polygon class="cls-1" points="953.77 445.32 954.5 444.59 954.5 724.45 666.55 436.5 805.75 297.3 953.77 445.32"/>
      <polygon class="cls-2" points="1105.63 288.68 959.86 434.44 814.24 288.82 960 143.05 1105.63 288.68"/>
      <polygon class="cls-4" points="1253.45 436.5 966.5 723.45 966.5 444.77 1114.11 297.16 1253.45 436.5"/>
    </g>
    <polygon class="cls-2" points="941 439.8 941 439.88 940.96 439.84 941 439.8"/>
    <polygon class="cls-2" points="941 439.8 941 439.88 940.96 439.84 941 439.8"/>
  </g>
  <g id="Layer_2" data-name="Layer 2">
    <text class="cls-6" transform="translate(706.07 823)"><tspan x="0" y="0">TEAM TUNGSTEN</tspan></text>
  </g>
  <g id="Layer_5" data-name="Layer 5">
    <text class="cls-7" transform="translate(898.02 378.86)"><tspan x="0" y="0">3</tspan></text>
  </g>
</svg>